<svg width="16" height="16" viewBox="0 0 16 16" fill="none" xmlns="http://www.w3.org/2000/svg">
<g id="Icon">
<path id="Vector" d="M13.2518 6.3667C13.1964 6.25675 13.1116 6.1643 13.0069 6.09958C12.9022 6.03486 12.7816 6.0004 12.6585 6.00003H9.32512V2.00003C9.33228 1.85382 9.29111 1.70932 9.20797 1.58883C9.12484 1.46834 9.00436 1.37857 8.86512 1.33336C8.73127 1.28933 8.58691 1.28883 8.45276 1.33195C8.31862 1.37507 8.20158 1.45958 8.11846 1.57336L2.78512 8.9067C2.7183 9.00327 2.67818 9.11579 2.66881 9.23286C2.65944 9.34993 2.68117 9.46739 2.73179 9.57336C2.7784 9.69453 2.85938 9.79945 2.96478 9.87524C3.07018 9.95104 3.19542 9.99441 3.32512 10H6.65846V14C6.65856 14.1406 6.7031 14.2776 6.78572 14.3913C6.86834 14.5051 6.9848 14.5898 7.11846 14.6334C7.18544 14.6541 7.25501 14.6653 7.32512 14.6667C7.43031 14.667 7.53408 14.6423 7.62793 14.5948C7.72178 14.5473 7.80306 14.4783 7.86512 14.3934L13.1985 7.06003C13.2703 6.96056 13.3133 6.8432 13.3227 6.72087C13.3321 6.59854 13.3076 6.47598 13.2518 6.3667ZM7.99179 11.9467V9.33336C7.99179 9.15655 7.92155 8.98698 7.79653 8.86196C7.6715 8.73693 7.50193 8.6667 7.32512 8.6667H4.65846L7.99179 4.05336V6.6667C7.99179 6.84351 8.06203 7.01308 8.18705 7.1381C8.31208 7.26313 8.48165 7.33336 8.65846 7.33336H11.3251L7.99179 11.9467Z" fill="#0B0F11"/>
</g>
</svg>
