<svg width="16" height="16" viewBox="0 0 16 16" fill="none" xmlns="http://www.w3.org/2000/svg">
<g id="Icon">
<path id="Vector (Stroke)" fill-rule="evenodd" clip-rule="evenodd" d="M8 2.66667C5.05448 2.66667 2.66666 5.05448 2.66666 8C2.66666 10.9455 5.05448 13.3333 8 13.3333C10.9455 13.3333 13.3333 10.9455 13.3333 8C13.3333 5.05448 10.9455 2.66667 8 2.66667ZM1.33333 8C1.33333 4.3181 4.3181 1.33333 8 1.33333C11.6819 1.33333 14.6667 4.3181 14.6667 8C14.6667 11.6819 11.6819 14.6667 8 14.6667C4.3181 14.6667 1.33333 11.6819 1.33333 8ZM8 4.66667C8.36819 4.66667 8.66666 4.96514 8.66666 5.33333V8C8.66666 8.36819 8.36819 8.66667 8 8.66667C7.6318 8.66667 7.33333 8.36819 7.33333 8V5.33333C7.33333 4.96514 7.6318 4.66667 8 4.66667ZM7.33333 10.6667C7.33333 10.2985 7.6318 10 8 10H8.00666C8.37485 10 8.67333 10.2985 8.67333 10.6667C8.67333 11.0349 8.37485 11.3333 8.00666 11.3333H8C7.6318 11.3333 7.33333 11.0349 7.33333 10.6667Z" fill="#CC1D1D"/>
</g>
</svg>
