<svg width="16" height="16" viewBox="0 0 16 16" fill="none" xmlns="http://www.w3.org/2000/svg">
<g id="Icon">
<path id="Vector (Stroke)" fill-rule="evenodd" clip-rule="evenodd" d="M8.00001 2.66666C5.05449 2.66666 2.66668 5.05448 2.66668 8C2.66668 10.9455 5.05449 13.3333 8.00001 13.3333C10.9455 13.3333 13.3333 10.9455 13.3333 8C13.3333 5.05448 10.9455 2.66666 8.00001 2.66666ZM1.33334 8C1.33334 4.3181 4.31811 1.33333 8.00001 1.33333C11.6819 1.33333 14.6667 4.3181 14.6667 8C14.6667 11.6819 11.6819 14.6667 8.00001 14.6667C4.31811 14.6667 1.33334 11.6819 1.33334 8ZM7.33334 5.33333C7.33334 4.96514 7.63182 4.66666 8.00001 4.66666H8.00668C8.37487 4.66666 8.67334 4.96514 8.67334 5.33333C8.67334 5.70152 8.37487 6 8.00668 6H8.00001C7.63182 6 7.33334 5.70152 7.33334 5.33333ZM6.66668 8C6.66668 7.6318 6.96515 7.33333 7.33334 7.33333H8.00001C8.3682 7.33333 8.66668 7.6318 8.66668 8V10C9.03487 10 9.33334 10.2985 9.33334 10.6667C9.33334 11.0349 9.03487 11.3333 8.66668 11.3333H8.00001C7.63182 11.3333 7.33334 11.0349 7.33334 10.6667V8.66666C6.96515 8.66666 6.66668 8.36819 6.66668 8Z" fill="#617177"/>
</g>
</svg>
