<svg width="168" height="38" viewBox="0 0 168 38" fill="none" xmlns="http://www.w3.org/2000/svg">
<g id="Layer_1" clip-path="url(#clip0_3978_1771)">
<g id="Group">
<path id="Vector" d="M89.499 18.1977C89.499 18.1977 90.9029 15.7428 93.8277 15.7428C96.5185 15.7428 99.0923 18.3146 99.0923 21.5878C99.0923 24.861 96.5185 27.4328 93.8277 27.4328C90.9029 27.4328 89.499 24.9779 89.499 24.9779V27.199H88.446V10.833H89.499V18.1977ZM93.8277 26.3807C95.9335 26.3807 98.0394 24.2765 98.0394 21.5878C98.0394 18.8991 95.9335 16.7949 93.8277 16.7949C91.6048 16.7949 89.499 18.8991 89.499 21.5878C89.499 24.2765 91.6048 26.3807 93.8277 26.3807Z" fill="black"/>
<path id="Vector_2" d="M110.791 25.2117C110.791 25.2117 109.739 27.4328 106.931 27.4328C104.357 27.4328 102.368 25.4455 102.368 22.6399V15.9766H103.421V22.6399C103.421 24.861 104.942 26.3807 106.931 26.3807C109.037 26.3807 110.791 24.6272 110.791 22.2892V15.9766H111.844V27.199H110.791V25.2117Z" fill="black"/>
<path id="Vector_3" d="M116.524 11.1837C116.992 11.1837 117.343 11.5344 117.343 12.002C117.343 12.4696 116.992 12.8203 116.524 12.8203C116.056 12.8203 115.705 12.4696 115.705 12.002C115.705 11.5344 116.056 11.1837 116.524 11.1837ZM115.939 15.9766H116.992V27.199H115.939V15.9766Z" fill="black"/>
<path id="Vector_4" d="M122.257 27.199H121.204V10.833H122.257V27.199Z" fill="black"/>
<path id="Vector_5" d="M135.126 10.833H136.179V27.199H135.126V24.9779C135.126 24.9779 133.722 27.4328 130.797 27.4328C128.106 27.4328 125.532 24.861 125.532 21.5878C125.532 18.3146 128.106 15.7428 130.797 15.7428C133.722 15.7428 135.126 18.1977 135.126 18.1977V10.833ZM130.797 16.7949C128.691 16.7949 126.585 18.8991 126.585 21.5878C126.585 24.2765 128.691 26.3807 130.797 26.3807C133.02 26.3807 135.126 24.2765 135.126 21.5878C135.126 18.8991 133.02 16.7949 130.797 16.7949Z" fill="black"/>
<path id="Vector_6" d="M140.507 22.0554C140.624 24.3934 142.613 26.3807 144.953 26.3807C147.41 26.3807 148.697 24.4128 148.697 24.4128L149.399 25.0948C149.399 25.0948 147.878 27.4328 144.953 27.4328C142.028 27.4328 139.454 24.861 139.454 21.5878C139.454 18.3146 142.028 15.7428 144.836 15.7428C147.644 15.7428 149.984 18.0808 149.984 21.5878V22.0554H140.507ZM140.507 21.0033H148.931C148.814 18.5484 147.059 16.7949 144.836 16.7949C142.613 16.7949 140.624 18.7822 140.507 21.0033Z" fill="black"/>
<path id="Vector_7" d="M158.758 16.7949H158.29C156.184 16.7949 154.312 18.4315 154.312 20.8864V27.199H153.259V15.9766H154.312V17.847C154.312 17.847 155.365 15.7428 158.29 15.7428H158.758V16.7949Z" fill="black"/>
</g>
<g id="Group_2">
<path id="Vector_8" d="M24.3735 20.068C24.3735 18.4314 23.2036 17.2624 21.5657 17.2624C19.5768 17.2624 18.4069 18.899 18.4069 18.899L17.354 17.8469C17.354 17.8469 18.8749 15.7427 21.5657 15.7427C24.2565 15.7427 26.0114 17.6131 26.0114 20.068V27.1989H24.3735V25.6792C24.3735 25.6792 23.2036 27.4327 20.7468 27.4327C18.2899 27.4327 16.769 25.7961 16.769 24.1595C16.769 22.2891 17.939 21.1201 20.0448 20.7694L24.3735 20.068ZM24.3735 22.1722V21.4708L20.5128 22.1722C19.1089 22.4255 18.4069 23.1074 18.4069 24.1595C18.4069 25.0947 19.2259 25.913 20.7468 25.913C22.8526 25.913 24.3735 24.3933 24.3735 22.1722Z" fill="black"/>
<path id="Vector_9" d="M31.51 27.1989H29.8721V10.8329H31.51V27.1989Z" fill="black"/>
<path id="Vector_10" d="M42.1562 20.068C42.1562 18.4314 40.9863 17.2624 39.3484 17.2624C37.3596 17.2624 36.1896 18.899 36.1896 18.899L35.1367 17.8469C35.1367 17.8469 36.6576 15.7427 39.3484 15.7427C42.0392 15.7427 43.7941 17.6131 43.7941 20.068V27.1989H42.1562V25.6792C42.1562 25.6792 40.9863 27.4327 38.5295 27.4327C36.0727 27.4327 34.5518 25.7961 34.5518 24.1595C34.5518 22.2891 35.7217 21.1201 37.8275 20.7694L42.1562 20.068ZM42.1562 22.1722V21.4708L38.2955 22.1722C36.8916 22.4255 36.1896 23.1074 36.1896 24.1595C36.1896 25.0947 37.0086 25.913 38.5295 25.913C40.6353 25.913 42.1562 24.3933 42.1562 22.1722Z" fill="black"/>
<path id="Vector_11" d="M49.1757 17.6131C49.1757 17.6131 50.3456 15.7427 52.8025 15.7427C55.4933 15.7427 57.3651 17.6131 57.3651 20.5356V27.1989H55.7273V20.5356C55.7273 18.5483 54.4404 17.2624 52.6855 17.2624C50.6966 17.2624 49.1757 18.7821 49.1757 21.0032V27.1989H47.5378V15.9765H49.1757V17.6131Z" fill="black"/>
<path id="Vector_12" d="M65.9055 15.7427C68.8303 15.7427 70.4682 17.9638 70.4682 17.9638L69.2983 19.1328C69.2983 19.1328 68.1284 17.2624 65.9055 17.2624C63.7997 17.2624 61.9278 19.1328 61.9278 21.5877C61.9278 24.0426 63.7997 25.913 65.9055 25.913C68.1284 25.913 69.4153 24.0426 69.4153 24.0426L70.5852 25.0947C70.5852 25.0947 68.8303 27.4327 65.9055 27.4327C62.9807 27.4327 60.2899 24.8609 60.2899 21.5877C60.2899 18.3145 62.8637 15.7427 65.9055 15.7427Z" fill="black"/>
<path id="Vector_13" d="M73.978 22.1722C74.095 24.1595 75.8498 25.913 77.9557 25.913C80.315 25.913 81.5824 24.0426 81.5824 24.0426L82.6354 25.0947C82.6354 25.0947 80.9975 27.4327 77.9557 27.4327C74.9139 27.4327 72.3401 24.8609 72.3401 21.5877C72.3401 18.3145 74.9139 15.7427 77.8387 15.7427C80.7635 15.7427 83.2203 18.0807 83.2203 21.3539C83.2203 21.8215 83.1033 22.1917 83.1033 22.1917H73.978V22.1722ZM73.978 20.7694H81.5824C81.3484 18.7821 79.8276 17.2624 77.8387 17.2624C75.8498 17.2624 74.212 18.899 73.978 20.7694Z" fill="black"/>
</g>
<path id="Vector_14" d="M6.74652 29.4977C3.02228 29.4977 0 26.4778 0 22.7565C0 19.0352 3.02228 16.0153 6.74652 16.0153C10.4708 16.0153 13.493 19.0352 13.493 22.7565C13.493 26.4778 10.4708 29.4977 6.74652 29.4977ZM6.74652 17.9441C4.09471 17.9441 1.94986 20.1068 1.94986 22.737C1.94986 25.3673 4.11421 27.5299 6.74652 27.5299C9.37883 27.5299 11.5432 25.3673 11.5432 22.737C11.5432 20.1068 9.37883 17.9441 6.74652 17.9441Z" fill="black"/>
<path id="Vector_15" d="M6.74652 21.7824C3.02228 21.7824 0 18.7624 0 15.0411C0 11.3198 3.02228 8.2999 6.74652 8.2999C10.4708 8.2999 13.493 11.3198 13.493 15.0411C13.493 18.7624 10.4708 21.7824 6.74652 21.7824ZM6.74652 10.2287C4.09471 10.2287 1.94986 12.3914 1.94986 15.0216C1.94986 17.6519 4.11421 19.8145 6.74652 19.8145C9.37883 19.8145 11.5432 17.6519 11.5432 15.0216C11.5432 12.3914 9.37883 10.2287 6.74652 10.2287Z" fill="black"/>
<path id="Vector_16" d="M7.72147 37.7782H5.77161V27.5494H6.74654C9.00837 27.5494 10.1783 26.1856 10.8607 25.153C11.6017 24.0424 11.7577 22.4448 11.2897 21.1589C10.8802 20.0483 10.3928 19.4638 10.3733 19.4638L9.84682 18.8599L10.3343 18.2169C10.3343 18.2169 10.6853 17.7688 11.2507 16.7946C11.6212 16.1517 11.7382 15.3334 11.5627 14.3397C11.2897 12.7226 9.9833 11.4757 9.9833 11.4562C8.57941 10.1703 6.80503 10.2287 6.80503 10.2287L5.79111 10.2677V0H7.74097V8.35835C8.6769 8.49473 10.0808 8.90388 11.3287 10.0339C11.4067 10.1118 13.1421 11.729 13.5126 14.028C13.7465 15.4892 13.571 16.7557 12.9471 17.7883C12.6936 18.2169 12.4791 18.5481 12.3231 18.8014C12.5571 19.1911 12.8691 19.7366 13.1421 20.477C13.844 22.3474 13.5905 24.6074 12.5181 26.2246C11.2897 28.095 9.69083 29.1665 7.76046 29.4198V37.7782H7.72147Z" fill="#E75420"/>
<path id="Vector_17" d="M6.74652 21.7824V19.834C9.39833 19.834 11.5432 17.6714 11.5432 15.0411C11.5432 12.4109 9.37883 10.2482 6.74652 10.2482V8.2999C10.4708 8.2999 13.493 11.3198 13.493 15.0411C13.493 18.7624 10.4708 21.7824 6.74652 21.7824Z" fill="#E75420"/>
<path id="Vector_18" d="M6.80505 29.4977V27.5494C9.45686 27.5494 11.6017 25.3868 11.6017 22.7565C11.6017 20.1263 9.43737 17.9636 6.80505 17.9636V16.0153C10.5293 16.0153 13.5516 19.0352 13.5516 22.7565C13.5516 26.4778 10.5293 29.4977 6.80505 29.4977Z" fill="#E75420"/>
</g>
<defs>
<clipPath id="clip0_3978_1771">
<rect width="168" height="37.7782" fill="white"/>
</clipPath>
</defs>
</svg>
