<svg width="16" height="16" viewBox="0 0 16 16" fill="none" xmlns="http://www.w3.org/2000/svg">
<g id="Icon">
<path id="Vector (Stroke)" fill-rule="evenodd" clip-rule="evenodd" d="M4.66667 2C5.03486 2 5.33333 2.29848 5.33333 2.66667V4H10.6667V2.66667C10.6667 2.29848 10.9651 2 11.3333 2C11.7015 2 12 2.29848 12 2.66667V4H13.3333C13.7015 4 14 4.29848 14 4.66667C14 5.03486 13.7015 5.33333 13.3333 5.33333H12V10.6667H13.3333C13.7015 10.6667 14 10.9651 14 11.3333C14 11.7015 13.7015 12 13.3333 12H12V13.3333C12 13.7015 11.7015 14 11.3333 14C10.9651 14 10.6667 13.7015 10.6667 13.3333V12H5.33333V13.3333C5.33333 13.7015 5.03486 14 4.66667 14C4.29848 14 4 13.7015 4 13.3333V12H2.66667C2.29848 12 2 11.7015 2 11.3333C2 10.9651 2.29848 10.6667 2.66667 10.6667H4V5.33333H2.66667C2.29848 5.33333 2 5.03486 2 4.66667C2 4.29848 2.29848 4 2.66667 4H4V2.66667C4 2.29848 4.29848 2 4.66667 2ZM5.33333 5.33333V10.6667H10.6667V5.33333H5.33333Z" fill="#171F22"/>
</g>
</svg>
