<svg width="16" height="16" viewBox="0 0 16 16" fill="none" xmlns="http://www.w3.org/2000/svg">
<g id="Icon">
<path id="Vector (Stroke)" fill-rule="evenodd" clip-rule="evenodd" d="M7.99998 1.33333C8.36817 1.33333 8.66665 1.63181 8.66665 2V4C8.66665 4.36819 8.36817 4.66667 7.99998 4.66667C7.63179 4.66667 7.33331 4.36819 7.33331 4V2C7.33331 1.63181 7.63179 1.33333 7.99998 1.33333ZM3.26191 3.26199C3.52226 3.00164 3.94437 3.00164 4.20472 3.26199L5.63805 4.69533C5.8984 4.95568 5.8984 5.37779 5.63805 5.63814C5.37771 5.89849 4.9556 5.89849 4.69525 5.63814L3.26191 4.2048C3.00156 3.94445 3.00156 3.52234 3.26191 3.26199ZM12.7381 3.26199C12.9984 3.52234 12.9984 3.94445 12.7381 4.2048L11.3047 5.63814C11.0444 5.89849 10.6223 5.89849 10.3619 5.63814C10.1016 5.37779 10.1016 4.95568 10.3619 4.69533L11.7952 3.26199C12.0556 3.00164 12.4777 3.00164 12.7381 3.26199ZM1.33331 8C1.33331 7.63181 1.63179 7.33333 1.99998 7.33333H3.99998C4.36817 7.33333 4.66665 7.63181 4.66665 8C4.66665 8.36819 4.36817 8.66667 3.99998 8.66667H1.99998C1.63179 8.66667 1.33331 8.36819 1.33331 8ZM11.3333 8C11.3333 7.63181 11.6318 7.33333 12 7.33333H14C14.3682 7.33333 14.6666 7.63181 14.6666 8C14.6666 8.36819 14.3682 8.66667 14 8.66667H12C11.6318 8.66667 11.3333 8.36819 11.3333 8ZM5.63806 10.3619C5.8984 10.6223 5.8984 11.0444 5.63805 11.3047L4.20472 12.7381C3.94437 12.9984 3.52226 12.9984 3.26191 12.7381C3.00156 12.4777 3.00156 12.0556 3.26191 11.7953L4.69525 10.3619C4.9556 10.1016 5.37771 10.1016 5.63806 10.3619ZM10.3619 10.3619C10.6223 10.1016 11.0444 10.1016 11.3047 10.3619L12.7381 11.7953C12.9984 12.0556 12.9984 12.4777 12.7381 12.7381C12.4777 12.9984 12.0556 12.9984 11.7952 12.7381L10.3619 11.3047C10.1016 11.0444 10.1016 10.6223 10.3619 10.3619ZM7.99998 11.3333C8.36817 11.3333 8.66665 11.6318 8.66665 12V14C8.66665 14.3682 8.36817 14.6667 7.99998 14.6667C7.63179 14.6667 7.33331 14.3682 7.33331 14V12C7.33331 11.6318 7.63179 11.3333 7.99998 11.3333Z" fill="#D29F00"/>
</g>
</svg>
